<svg width="1394" height="1058" viewBox="0 0 1394 1058" fill="none" xmlns="http://www.w3.org/2000/svg">
<mask id="mask0_27_170" style="mask-type:alpha" maskUnits="userSpaceOnUse" x="0" y="-62" width="1119" height="1120">
<circle cx="559.224" cy="497.882" r="559.224" fill="url(#paint0_radial_27_170)"/>
</mask>
<g mask="url(#mask0_27_170)">
<line x1="75.0634" y1="51.6324" x2="75.1609" y2="946.389" stroke="#777985" stroke-opacity="0.5"/>
<line x1="149.626" y1="51.6324" x2="149.724" y2="946.389" stroke="#777985" stroke-opacity="0.5"/>
<line y1="-0.5" x2="894.757" y2="-0.5" transform="matrix(9.03573e-05 1 -1 0.000131505 223.69 51.6324)" stroke="#777985" stroke-opacity="0.5"/>
<line x1="298.655" y1="51.6324" x2="298.753" y2="946.389" stroke="#777985" stroke-opacity="0.5"/>
<line x1="373.316" y1="51.6324" x2="373.413" y2="946.389" stroke="#777985" stroke-opacity="0.5"/>
<line x1="447.879" y1="51.6324" x2="447.976" y2="946.389" stroke="#777985" stroke-opacity="0.5"/>
<line y1="-0.5" x2="894.757" y2="-0.5" transform="matrix(9.03573e-05 1 -1 0.000131505 521.942 51.6324)" stroke="#777985" stroke-opacity="0.5"/>
<line x1="596.908" y1="51.6324" x2="597.005" y2="946.389" stroke="#777985" stroke-opacity="0.5"/>
<line x1="671.568" y1="51.6324" x2="671.666" y2="946.389" stroke="#777985" stroke-opacity="0.5"/>
<line x1="746.131" y1="51.6324" x2="746.229" y2="946.389" stroke="#777985" stroke-opacity="0.5"/>
<line y1="-0.5" x2="894.757" y2="-0.5" transform="matrix(9.03573e-05 1 -1 0.000131505 820.194 51.6324)" stroke="#777985" stroke-opacity="0.5"/>
<line x1="895.16" y1="51.6324" x2="895.258" y2="946.389" stroke="#777985" stroke-opacity="0.5"/>
<line x1="969.821" y1="51.6324" x2="969.918" y2="946.389" stroke="#777985" stroke-opacity="0.5"/>
<line x1="1044.38" y1="51.6324" x2="1044.48" y2="946.389" stroke="#777985" stroke-opacity="0.5"/>
<line y1="-0.5" x2="1118.45" y2="-0.5" transform="matrix(-1 8.71702e-05 -0.000136203 -1 1118.45 126.195)" stroke="#777985" stroke-opacity="0.5"/>
<line y1="-0.5" x2="1118.45" y2="-0.5" transform="matrix(-1 8.71702e-05 -0.000136203 -1 1118.45 200.759)" stroke="#777985" stroke-opacity="0.5"/>
<line y1="-0.5" x2="1118.45" y2="-0.5" transform="matrix(-1 7.22509e-05 -0.000164326 -1 1118.45 275.323)" stroke="#777985" stroke-opacity="0.5"/>
<line y1="-0.5" x2="1118.45" y2="-0.5" transform="matrix(-1 8.70564e-05 -0.000136381 -1 1118.45 349.787)" stroke="#777985" stroke-opacity="0.5"/>
<line y1="-0.5" x2="1118.45" y2="-0.5" transform="matrix(-1 8.71702e-05 -0.000136203 -1 1118.45 424.448)" stroke="#777985" stroke-opacity="0.5"/>
<line y1="-0.5" x2="1118.45" y2="-0.5" transform="matrix(-1 8.71702e-05 -0.000136203 -1 1118.45 499.011)" stroke="#777985" stroke-opacity="0.5"/>
<line y1="-0.5" x2="1118.45" y2="-0.5" transform="matrix(-1 7.22509e-05 -0.000164326 -1 1118.45 573.574)" stroke="#777985" stroke-opacity="0.5"/>
<line y1="-0.5" x2="1118.45" y2="-0.5" transform="matrix(-1 8.70564e-05 -0.000136381 -1 1118.45 648.039)" stroke="#777985" stroke-opacity="0.5"/>
<line y1="-0.5" x2="1118.45" y2="-0.5" transform="matrix(-1 8.71702e-05 -0.000136203 -1 1118.45 722.701)" stroke="#777985" stroke-opacity="0.5"/>
<line y1="-0.5" x2="1118.45" y2="-0.5" transform="matrix(-1 8.71702e-05 -0.000136203 -1 1118.45 797.264)" stroke="#777985" stroke-opacity="0.5"/>
<line y1="-0.5" x2="1118.45" y2="-0.5" transform="matrix(-1 7.22509e-05 -0.000164326 -1 1118.45 871.826)" stroke="#777985" stroke-opacity="0.5"/>
</g>
<mask id="mask1_27_170" style="mask-type:alpha" maskUnits="userSpaceOnUse" x="275" y="-99" width="1119" height="1119">
<circle cx="834.671" cy="460.224" r="559.224" fill="url(#paint1_radial_27_170)"/>
</mask>
<g mask="url(#mask1_27_170)">
<line x1="286.602" y1="13.9745" x2="286.7" y2="908.731" stroke="#C9B500" stroke-width="2"/>
<line x1="361.263" y1="13.9745" x2="361.36" y2="908.731" stroke="#C9B500" stroke-width="2"/>
<line x1="435.826" y1="13.9745" x2="435.923" y2="908.731" stroke="#C9B500" stroke-width="2"/>
<line y1="-1" x2="894.757" y2="-1" transform="matrix(9.03573e-05 1 -1 0.000131505 509.389 13.9747)" stroke="#C9B500" stroke-width="2"/>
<line x1="584.854" y1="13.9745" x2="584.952" y2="908.731" stroke="#C9B500" stroke-width="2"/>
<line x1="659.515" y1="13.9745" x2="659.613" y2="908.731" stroke="#C9B500" stroke-width="2"/>
<line x1="734.078" y1="13.9745" x2="734.176" y2="908.731" stroke="#C9B500" stroke-width="2"/>
<line y1="-1" x2="894.757" y2="-1" transform="matrix(9.03573e-05 1 -1 0.000131505 807.642 13.9747)" stroke="#C9B500" stroke-width="2"/>
<line x1="883.107" y1="13.9745" x2="883.204" y2="908.731" stroke="#C9B500" stroke-width="2"/>
<line x1="957.768" y1="13.9745" x2="957.866" y2="908.731" stroke="#C9B500" stroke-width="2"/>
<line x1="1032.33" y1="13.9745" x2="1032.43" y2="908.731" stroke="#C9B500" stroke-width="2"/>
<line y1="-1" x2="1118.45" y2="-1" transform="matrix(-1 8.71702e-05 -0.000136203 -1 1105.89 88.5373)" stroke="#C9B500" stroke-width="2"/>
<line y1="-1" x2="1118.45" y2="-1" transform="matrix(-1 8.71702e-05 -0.000136203 -1 1105.89 163.101)" stroke="#C9B500" stroke-width="2"/>
<line y1="-1" x2="1118.45" y2="-1" transform="matrix(-1 7.22509e-05 -0.000164326 -1 1105.89 237.664)" stroke="#C9B500" stroke-width="2"/>
<line y1="-1" x2="1118.45" y2="-1" transform="matrix(-1 8.70564e-05 -0.000136381 -1 1105.89 312.13)" stroke="#C9B500" stroke-width="2"/>
<line y1="-1" x2="1118.45" y2="-1" transform="matrix(-1 8.71702e-05 -0.000136203 -1 1105.89 386.79)" stroke="#C9B500" stroke-width="2"/>
<line y1="-1" x2="1118.45" y2="-1" transform="matrix(-1 8.71702e-05 -0.000136203 -1 1105.89 461.353)" stroke="#C9B500" stroke-width="2"/>
<line y1="-1" x2="1118.45" y2="-1" transform="matrix(-1 7.22509e-05 -0.000164326 -1 1105.89 535.916)" stroke="#C9B500" stroke-width="2"/>
<line y1="-1" x2="1118.45" y2="-1" transform="matrix(-1 8.70564e-05 -0.000136381 -1 1105.89 610.382)" stroke="#C9B500" stroke-width="2"/>
<line y1="-1" x2="1118.45" y2="-1" transform="matrix(-1 8.71702e-05 -0.000136203 -1 1105.89 685.043)" stroke="#C9B500" stroke-width="2"/>
<line y1="-1" x2="1118.45" y2="-1" transform="matrix(-1 8.71702e-05 -0.000136203 -1 1105.89 759.605)" stroke="#C9B500" stroke-width="2"/>
<line y1="-1" x2="1118.45" y2="-1" transform="matrix(-1 7.22509e-05 -0.000164326 -1 1105.89 834.169)" stroke="#C9B500" stroke-width="2"/>
</g>
<defs>
<radialGradient id="paint0_radial_27_170" cx="0" cy="0" r="1" gradientUnits="userSpaceOnUse" gradientTransform="translate(559.224 497.882) rotate(90) scale(426.165)">
<stop/>
<stop offset="1" stop-color="#D9D9D9" stop-opacity="0"/>
</radialGradient>
<radialGradient id="paint1_radial_27_170" cx="0" cy="0" r="1" gradientUnits="userSpaceOnUse" gradientTransform="translate(834.671 460.224) rotate(90) scale(426.165)">
<stop/>
<stop offset="1" stop-color="#D9D9D9" stop-opacity="0"/>
</radialGradient>
</defs>
</svg>
